<svg width="17" height="17" viewBox="0 0 17 17" fill="none" xmlns="http://www.w3.org/2000/svg">
<circle cx="8.54487" cy="8.25398" r="7.36508" stroke="#EC1C23" stroke-width="1.53439"/>
<path fill-rule="evenodd" clip-rule="evenodd" d="M6.76943 6.8146L4.63858 11.609C4.58501 11.7295 4.59688 11.8691 4.67005 11.9789C4.77325 12.1337 4.97238 12.1925 5.14313 12.1187L9.9777 10.028C10.1967 9.93335 10.3703 9.75735 10.4621 9.53713L12.4565 4.75051C12.5052 4.63371 12.4786 4.4991 12.3891 4.40963C12.2996 4.32016 12.165 4.29353 12.0482 4.34219L7.25663 6.33869C7.03936 6.42921 6.86502 6.59952 6.76943 6.8146ZM8.5447 8.99327C8.953 8.99327 9.284 8.66227 9.284 8.25397C9.284 7.84566 8.953 7.51467 8.5447 7.51467C8.1364 7.51467 7.8054 7.84566 7.8054 8.25397C7.8054 8.66227 8.1364 8.99327 8.5447 8.99327Z" fill="#EC1C23"/>
</svg>
