<svg width="10" height="11" viewBox="0 0 10 11" fill="none" xmlns="http://www.w3.org/2000/svg">
<path d="M9.15895 5.86083C9.15895 8.16337 7.30196 10.0239 5.01874 10.0239C2.73551 10.0239 0.878524 8.16337 0.878524 5.86083C0.878524 3.55829 2.73551 1.69779 5.01874 1.69779C7.30196 1.69779 9.15895 3.55829 9.15895 5.86083Z" stroke="#FBDA16" stroke-width="1.53439"/>
<path fill-rule="evenodd" clip-rule="evenodd" d="M3.88822 5.1193L2.66054 7.89444C2.62838 7.96714 2.63551 8.05122 2.67947 8.11745C2.74189 8.21153 2.8628 8.24728 2.96635 8.2023L5.74762 6.99399C5.96643 6.89893 6.13979 6.72265 6.23118 6.50229L7.37885 3.73507C7.40807 3.66463 7.39205 3.58354 7.33825 3.52949C7.28407 3.47506 7.20232 3.45885 7.13148 3.48851L4.37466 4.64253C4.15753 4.73342 3.98346 4.90403 3.88822 5.1193ZM5.018 6.30825C5.26439 6.30825 5.46413 6.10759 5.46413 5.86005C5.46413 5.61251 5.26439 5.41185 5.018 5.41185C4.77161 5.41185 4.57187 5.61251 4.57187 5.86005C4.57187 6.10759 4.77161 6.30825 5.018 6.30825Z" fill="#FBDA16"/>
</svg>
