<svg width="174" height="66" viewBox="0 0 174 66" fill="none" xmlns="http://www.w3.org/2000/svg">
<circle cx="26.5449" cy="49.254" r="7.36508" stroke="#EC1C23" stroke-width="1.53439"/>
<path fill-rule="evenodd" clip-rule="evenodd" d="M24.7695 47.8146L22.6386 52.609C22.5851 52.7296 22.597 52.8691 22.6701 52.9789C22.7733 53.1337 22.9724 53.1925 23.1432 53.1187L27.9778 51.0281C28.1967 50.9334 28.3704 50.7574 28.4622 50.5371L30.4566 45.7505C30.5053 45.6337 30.4786 45.4991 30.3892 45.4096C30.2997 45.3202 30.1651 45.2935 30.0483 45.3422L25.2567 47.3387C25.0394 47.4292 24.8651 47.5995 24.7695 47.8146ZM26.5448 49.9933C26.9531 49.9933 27.2841 49.6623 27.2841 49.254C27.2841 48.8457 26.9531 48.5147 26.5448 48.5147C26.1365 48.5147 25.8055 48.8457 25.8055 49.254C25.8055 49.6623 26.1365 49.9933 26.5448 49.9933Z" fill="#EC1C23"/>
<path d="M4.43056 37.1297V58.0741H2.66121V37.1297H4.43056ZM17.377 37.1297L8.34325 46.7244L3.79762 51.1981L3.625 49.2274L7.27877 45.4298L15.1617 37.1297H17.377ZM15.9097 58.0741L7.09177 47.3142L8.15625 45.8901L18.0531 58.0741H15.9097ZM39.2804 45.7318V58.0741H37.5542V42.5096H39.2085L39.2804 45.7318ZM38.964 49.3281L38.1296 48.8965C38.1872 47.9759 38.3598 47.1128 38.6475 46.3072C38.9448 45.5017 39.3571 44.792 39.8846 44.1783C40.412 43.5645 41.045 43.085 41.7834 42.7398C42.5218 42.3945 43.3609 42.2219 44.3008 42.2219C45.0584 42.2219 45.744 42.3274 46.3578 42.5384C46.9811 42.7398 47.5086 43.061 47.9401 43.5022C48.3813 43.9337 48.7217 44.4995 48.9615 45.1996C49.2012 45.8997 49.3211 46.7388 49.3211 47.717V58.0741H47.6093V47.7745C47.6093 46.7388 47.4463 45.9284 47.1202 45.3434C46.8037 44.7585 46.3578 44.3413 45.7824 44.092C45.2166 43.8426 44.5597 43.7179 43.8117 43.7179C42.9294 43.7179 42.1814 43.9002 41.5676 44.2646C40.9635 44.6194 40.4696 45.0845 40.086 45.6599C39.712 46.2257 39.4339 46.8347 39.2517 47.4868C39.0694 48.1293 38.9735 48.7431 38.964 49.3281ZM49.3067 47.9759L48.1559 48.0047C48.2039 47.247 48.3765 46.523 48.6738 45.8325C48.9807 45.1421 49.3978 44.5283 49.9253 43.9913C50.4527 43.4446 51.0808 43.0131 51.8097 42.6966C52.5481 42.3801 53.3776 42.2219 54.2983 42.2219C55.1038 42.2219 55.8231 42.3322 56.456 42.5528C57.089 42.7637 57.6212 43.1042 58.0527 43.5741C58.4939 44.0344 58.8295 44.6242 59.0597 45.3434C59.2898 46.0627 59.4049 46.9258 59.4049 47.9327V58.0741H57.6787V47.9183C57.6787 46.8155 57.5157 45.962 57.1896 45.3578C56.8732 44.7441 56.432 44.3173 55.8662 44.0776C55.3004 43.8378 54.6387 43.7179 53.8811 43.7179C53.1331 43.7275 52.4762 43.8666 51.9104 44.1351C51.3446 44.394 50.8699 44.7393 50.4863 45.1708C50.1123 45.5928 49.8246 46.0483 49.6232 46.5374C49.4314 47.0265 49.3259 47.506 49.3067 47.9759ZM65.4754 45.5017V64.0582H63.7492V42.5096H65.3603L65.4754 45.5017ZM76.2928 50.148V50.4501C76.2928 51.6105 76.1586 52.675 75.89 53.6435C75.6215 54.6121 75.2331 55.4512 74.7249 56.1609C74.2262 56.861 73.6076 57.4028 72.8692 57.7864C72.1308 58.17 71.2917 58.3618 70.3518 58.3618C69.4216 58.3618 68.5921 58.2179 67.8633 57.9302C67.1344 57.6425 66.5063 57.235 65.9788 56.7075C65.461 56.1705 65.0438 55.5471 64.7273 54.8375C64.4205 54.1182 64.2047 53.3319 64.08 52.4784V48.4937C64.2239 47.5539 64.4588 46.7004 64.7849 45.9332C65.1109 45.166 65.5281 44.5043 66.0364 43.9481C66.5542 43.3919 67.168 42.9651 67.8776 42.6678C68.5873 42.3706 69.3976 42.2219 70.3087 42.2219C71.2581 42.2219 72.102 42.4089 72.8404 42.7829C73.5885 43.1473 74.2166 43.6796 74.7249 44.3797C75.2427 45.0701 75.6311 45.9045 75.89 46.8826C76.1586 47.8512 76.2928 48.9397 76.2928 50.148ZM74.5666 50.4501V50.148C74.5666 49.237 74.4707 48.393 74.2789 47.6163C74.0967 46.8395 73.8138 46.1634 73.4302 45.588C73.0562 45.003 72.5767 44.5475 71.9917 44.2214C71.4163 43.8954 70.7307 43.7323 69.9347 43.7323C69.11 43.7323 68.4051 43.8714 67.8201 44.1495C67.2447 44.418 66.7652 44.7776 66.3816 45.2284C65.998 45.6695 65.6959 46.1538 65.4754 46.6812C65.2548 47.2087 65.0918 47.7265 64.9863 48.2348V52.8236C65.1685 53.5524 65.461 54.2285 65.8638 54.8519C66.2665 55.4656 66.8036 55.9595 67.4749 56.3335C68.1558 56.6979 68.9853 56.8801 69.9635 56.8801C70.7498 56.8801 71.4307 56.7171 72.0061 56.3911C72.5815 56.065 73.0562 55.6095 73.4302 55.0245C73.8138 54.4395 74.0967 53.7586 74.2789 52.9818C74.4707 52.205 74.5666 51.3611 74.5666 50.4501ZM89.5845 55.2834V47.2566C89.5845 46.5182 89.431 45.8805 89.1242 45.3434C88.8173 44.8064 88.3666 44.394 87.772 44.1063C87.1774 43.8186 86.4438 43.6748 85.5711 43.6748C84.7655 43.6748 84.0463 43.8186 83.4134 44.1063C82.79 44.3844 82.2961 44.7633 81.9317 45.2427C81.5769 45.7127 81.3995 46.2353 81.3995 46.8107L79.6733 46.7963C79.6733 46.2113 79.8171 45.6455 80.1048 45.0989C80.3925 44.5523 80.8001 44.0632 81.3275 43.6316C81.855 43.2001 82.4831 42.8596 83.212 42.6103C83.9504 42.3514 84.7607 42.2219 85.643 42.2219C86.7555 42.2219 87.7336 42.4089 88.5775 42.7829C89.431 43.1569 90.0976 43.7179 90.577 44.466C91.0565 45.214 91.2963 46.1538 91.2963 47.2854V54.8087C91.2963 55.3458 91.3347 55.902 91.4114 56.4774C91.4977 57.0528 91.6176 57.5275 91.771 57.9015V58.0741H89.9441C89.829 57.7289 89.7379 57.2973 89.6708 56.7795C89.6133 56.252 89.5845 55.7533 89.5845 55.2834ZM89.9873 49.0116L90.016 50.335H86.6356C85.7533 50.335 84.9621 50.4165 84.2621 50.5796C83.5716 50.733 82.9866 50.9632 82.5071 51.27C82.0276 51.5673 81.6584 51.9269 81.3995 52.3489C81.1501 52.7709 81.0255 53.2504 81.0255 53.7874C81.0255 54.3436 81.1645 54.8519 81.4426 55.3122C81.7303 55.7725 82.1331 56.1417 82.651 56.4198C83.1784 56.6883 83.8018 56.8226 84.521 56.8226C85.48 56.8226 86.3239 56.6452 87.0527 56.2904C87.7912 55.9355 88.4001 55.4704 88.8796 54.895C89.3591 54.3196 89.6804 53.6915 89.8434 53.0106L90.5914 54.0032C90.4668 54.4827 90.2366 54.9765 89.901 55.4848C89.5749 55.9835 89.1481 56.4534 88.6207 56.8945C88.0933 57.3261 87.4699 57.6809 86.7507 57.959C86.041 58.2275 85.2354 58.3618 84.334 58.3618C83.3175 58.3618 82.4304 58.17 81.6728 57.7864C80.9248 57.4028 80.3398 56.8801 79.9178 56.2184C79.5055 55.5471 79.2993 54.7895 79.2993 53.9456C79.2993 53.1784 79.4623 52.4927 79.7884 51.8886C80.1144 51.2748 80.5843 50.757 81.1981 50.335C81.8214 49.9035 82.5694 49.5774 83.4421 49.3568C84.3244 49.1267 85.3122 49.0116 86.4054 49.0116H89.9873ZM105.235 54.1039C105.235 53.6819 105.13 53.2647 104.919 52.8524C104.708 52.44 104.3 52.0612 103.696 51.716C103.102 51.3707 102.224 51.0782 101.064 50.8385C100.201 50.6467 99.4286 50.4309 98.7477 50.1912C98.0764 49.9514 97.5106 49.6637 97.0503 49.3281C96.5899 48.9924 96.2399 48.5896 96.0002 48.1197C95.7604 47.6498 95.6405 47.0936 95.6405 46.4511C95.6405 45.8757 95.7652 45.3339 96.0145 44.8256C96.2735 44.3077 96.6379 43.857 97.1078 43.4734C97.5873 43.0802 98.1627 42.7733 98.834 42.5528C99.5149 42.3322 100.277 42.2219 101.121 42.2219C102.32 42.2219 103.346 42.4281 104.2 42.8405C105.063 43.2432 105.72 43.7947 106.17 44.4947C106.631 45.1948 106.861 45.986 106.861 46.8682H105.149C105.149 46.3312 104.991 45.8229 104.674 45.3434C104.367 44.8639 103.912 44.4708 103.308 44.1639C102.713 43.857 101.984 43.7036 101.121 43.7036C100.229 43.7036 99.5053 43.8378 98.9491 44.1063C98.3929 44.3749 97.9853 44.7153 97.7264 45.1277C97.477 45.54 97.3523 45.9668 97.3523 46.4079C97.3523 46.7532 97.4051 47.0696 97.5106 47.3573C97.6257 47.6354 97.827 47.8944 98.1147 48.1341C98.412 48.3739 98.834 48.5992 99.3806 48.8102C99.9272 49.0212 100.637 49.2274 101.51 49.4288C102.766 49.7069 103.792 50.0473 104.588 50.4501C105.394 50.8433 105.988 51.3324 106.372 51.9174C106.755 52.4927 106.947 53.1928 106.947 54.0175C106.947 54.6601 106.813 55.2499 106.544 55.7869C106.276 56.3143 105.887 56.7699 105.379 57.1535C104.88 57.5371 104.276 57.8343 103.567 58.0453C102.867 58.2563 102.08 58.3618 101.208 58.3618C99.8937 58.3618 98.7812 58.146 97.8702 57.7145C96.9687 57.2733 96.2831 56.6979 95.8132 55.9883C95.3528 55.269 95.1227 54.5066 95.1227 53.7011H96.8345C96.892 54.5066 97.1462 55.1444 97.5969 55.6143C98.0476 56.0746 98.599 56.4007 99.2512 56.5924C99.9129 56.7842 100.565 56.8801 101.208 56.8801C102.09 56.8801 102.828 56.7507 103.423 56.4918C104.017 56.2328 104.468 55.8924 104.775 55.4704C105.082 55.0485 105.235 54.5929 105.235 54.1039ZM120.167 54.1039C120.167 53.6819 120.061 53.2647 119.85 52.8524C119.639 52.44 119.232 52.0612 118.628 51.716C118.033 51.3707 117.156 51.0782 115.995 50.8385C115.132 50.6467 114.36 50.4309 113.679 50.1912C113.008 49.9514 112.442 49.6637 111.982 49.3281C111.521 48.9924 111.171 48.5896 110.932 48.1197C110.692 47.6498 110.572 47.0936 110.572 46.4511C110.572 45.8757 110.697 45.3339 110.946 44.8256C111.205 44.3077 111.569 43.857 112.039 43.4734C112.519 43.0802 113.094 42.7733 113.766 42.5528C114.446 42.3322 115.209 42.2219 116.053 42.2219C117.251 42.2219 118.278 42.4281 119.131 42.8405C119.994 43.2432 120.651 43.7947 121.102 44.4947C121.562 45.1948 121.792 45.986 121.792 46.8682H120.081C120.081 46.3312 119.922 45.8229 119.606 45.3434C119.299 44.8639 118.843 44.4708 118.239 44.1639C117.645 43.857 116.916 43.7036 116.053 43.7036C115.161 43.7036 114.437 43.8378 113.881 44.1063C113.324 44.3749 112.917 44.7153 112.658 45.1277C112.409 45.54 112.284 45.9668 112.284 46.4079C112.284 46.7532 112.337 47.0696 112.442 47.3573C112.557 47.6354 112.759 47.8944 113.046 48.1341C113.344 48.3739 113.766 48.5992 114.312 48.8102C114.859 49.0212 115.568 49.2274 116.441 49.4288C117.697 49.7069 118.724 50.0473 119.519 50.4501C120.325 50.8433 120.92 51.3324 121.303 51.9174C121.687 52.4927 121.879 53.1928 121.879 54.0175C121.879 54.6601 121.744 55.2499 121.476 55.7869C121.207 56.3143 120.819 56.7699 120.311 57.1535C119.812 57.5371 119.208 57.8343 118.498 58.0453C117.798 58.2563 117.012 58.3618 116.139 58.3618C114.825 58.3618 113.713 58.146 112.802 57.7145C111.9 57.2733 111.215 56.6979 110.745 55.9883C110.284 55.269 110.054 54.5066 110.054 53.7011H111.766C111.824 54.5066 112.078 55.1444 112.528 55.6143C112.979 56.0746 113.531 56.4007 114.183 56.5924C114.844 56.7842 115.497 56.8801 116.139 56.8801C117.021 56.8801 117.76 56.7507 118.354 56.4918C118.949 56.2328 119.4 55.8924 119.707 55.4704C120.013 55.0485 120.167 54.5929 120.167 54.1039Z" fill="black"/>
<path d="M6.72795 6.18287V28H2.24764V6.18287H6.72795ZM14.8944 15.2484V28H10.5789V11.787H14.6247L14.8944 15.2484ZM14.265 19.3241H13.0963C13.0963 18.1254 13.2511 17.0465 13.5608 16.0875C13.8705 15.1185 14.305 14.2944 14.8644 13.6151C15.4238 12.9258 16.0881 12.4014 16.8573 12.0417C17.6365 11.6721 18.5056 11.4873 19.4646 11.4873C20.2238 11.4873 20.9181 11.5972 21.5474 11.817C22.1768 12.0367 22.7162 12.3864 23.1657 12.8659C23.6252 13.3454 23.9749 13.9797 24.2146 14.7689C24.4644 15.558 24.5892 16.522 24.5892 17.6608V28H20.2438V17.6459C20.2438 16.9266 20.1439 16.3672 19.9441 15.9676C19.7443 15.568 19.4496 15.2883 19.06 15.1285C18.6804 14.9587 18.2109 14.8738 17.6515 14.8738C17.0721 14.8738 16.5676 14.9886 16.1381 15.2184C15.7185 15.4482 15.3689 15.7678 15.0892 16.1774C14.8195 16.577 14.6147 17.0465 14.4748 17.5859C14.335 18.1254 14.265 18.7047 14.265 19.3241ZM35.8125 11.787V14.8438H26.3724V11.787H35.8125ZM28.7099 7.78619H33.0254V23.1151C33.0254 23.5846 33.0853 23.9443 33.2052 24.194C33.3351 24.4437 33.5249 24.6185 33.7746 24.7184C34.0243 24.8083 34.339 24.8533 34.7186 24.8533C34.9883 24.8533 35.2281 24.8433 35.4379 24.8233C35.6576 24.7934 35.8424 24.7634 35.9923 24.7334L36.0073 27.9101C35.6376 28.03 35.2381 28.1249 34.8085 28.1948C34.379 28.2647 33.9045 28.2997 33.385 28.2997C32.436 28.2997 31.6069 28.1448 30.8976 27.8352C30.1983 27.5155 29.6589 27.006 29.2793 26.3068C28.8997 25.6075 28.7099 24.6885 28.7099 23.5497V7.78619ZM45.7321 28.2997C44.4734 28.2997 43.3446 28.0999 42.3456 27.7003C41.3467 27.2907 40.4975 26.7263 39.7983 26.0071C39.109 25.2878 38.5796 24.4537 38.2099 23.5047C37.8403 22.5457 37.6555 21.5268 37.6555 20.4479V19.8485C37.6555 18.6198 37.8303 17.496 38.18 16.4771C38.5296 15.4581 39.0291 14.5741 39.6784 13.8249C40.3377 13.0756 41.1369 12.5012 42.0759 12.1017C43.0149 11.6921 44.0738 11.4873 45.2526 11.4873C46.4014 11.4873 47.4203 11.6771 48.3094 12.0567C49.1984 12.4363 49.9426 12.9757 50.542 13.675C51.1514 14.3743 51.6109 15.2134 51.9206 16.1924C52.2302 17.1614 52.3851 18.2402 52.3851 19.429V21.2271H39.4986V18.3501H48.1445V18.0205C48.1445 17.4211 48.0346 16.8867 47.8149 16.4171C47.6051 15.9376 47.2854 15.558 46.8559 15.2783C46.4263 14.9986 45.8769 14.8588 45.2076 14.8588C44.6382 14.8588 44.1487 14.9836 43.7391 15.2334C43.3296 15.4831 42.9949 15.8328 42.7352 16.2823C42.4855 16.7318 42.2957 17.2613 42.1658 17.8706C42.0459 18.47 41.986 19.1293 41.986 19.8485V20.4479C41.986 21.0972 42.0759 21.6966 42.2557 22.246C42.4455 22.7955 42.7102 23.27 43.0499 23.6695C43.3995 24.0691 43.8191 24.3788 44.3086 24.5986C44.808 24.8183 45.3724 24.9282 46.0018 24.9282C46.781 24.9282 47.5052 24.7784 48.1745 24.4787C48.8538 24.169 49.4382 23.7045 49.9277 23.0852L52.0255 25.3628C51.6858 25.8523 51.2213 26.3218 50.6319 26.7713C50.0525 27.2208 49.3533 27.5904 48.5341 27.8801C47.715 28.1598 46.781 28.2997 45.7321 28.2997ZM65.1067 11.787H69.0176V27.4606C69.0176 28.939 68.688 30.1927 68.0287 31.2216C67.3794 32.2605 66.4703 33.0447 65.3015 33.5742C64.1328 34.1136 62.7742 34.3833 61.2258 34.3833C60.5465 34.3833 59.8273 34.2934 59.0681 34.1136C58.3189 33.9338 57.5996 33.6541 56.9103 33.2745C56.2311 32.8949 55.6617 32.4154 55.2021 31.836L57.1051 29.2886C57.6046 29.868 58.184 30.3176 58.8433 30.6372C59.5026 30.9669 60.2319 31.1317 61.031 31.1317C61.8102 31.1317 62.4695 30.9869 63.0089 30.6972C63.5484 30.4175 63.9629 30.0029 64.2526 29.4535C64.5423 28.914 64.6872 28.2597 64.6872 27.4905V15.5331L65.1067 11.787ZM54.1982 20.0883V19.7736C54.1982 18.5349 54.348 17.4111 54.6477 16.4022C54.9574 15.3832 55.3919 14.5091 55.9513 13.7799C56.5207 13.0507 57.21 12.4863 58.0192 12.0867C58.8283 11.6871 59.7424 11.4873 60.7613 11.4873C61.8402 11.4873 62.7442 11.6871 63.4735 12.0867C64.2027 12.4863 64.8021 13.0557 65.2716 13.7949C65.7411 14.5241 66.1057 15.3882 66.3654 16.3872C66.6351 17.3761 66.8449 18.46 66.9948 19.6388V20.328C66.8449 21.4569 66.6202 22.5058 66.3205 23.4747C66.0208 24.4437 65.6262 25.2928 65.1367 26.0221C64.6472 26.7413 64.0379 27.3007 63.3086 27.7003C62.5894 28.0999 61.7303 28.2997 60.7313 28.2997C59.7324 28.2997 58.8283 28.0949 58.0192 27.6853C57.22 27.2758 56.5357 26.7014 55.9663 25.9621C55.3969 25.2229 54.9574 24.3538 54.6477 23.3549C54.348 22.3559 54.1982 21.2671 54.1982 20.0883ZM58.5137 19.7736V20.0883C58.5137 20.7576 58.5786 21.3819 58.7085 21.9613C58.8383 22.5407 59.0381 23.0552 59.3078 23.5047C59.5875 23.9443 59.9322 24.2889 60.3417 24.5386C60.7613 24.7784 61.2558 24.8983 61.8252 24.8983C62.6144 24.8983 63.2587 24.7334 63.7582 24.4038C64.2576 24.0641 64.6322 23.5996 64.882 23.0102C65.1317 22.4208 65.2766 21.7416 65.3165 20.9724V19.0094C65.2966 18.3801 65.2116 17.8157 65.0618 17.3162C64.912 16.8067 64.7022 16.3722 64.4325 16.0126C64.1627 15.6529 63.8131 15.3732 63.3836 15.1734C62.954 14.9737 62.4445 14.8738 61.8552 14.8738C61.2858 14.8738 60.7913 15.0036 60.3717 15.2634C59.9621 15.5131 59.6175 15.8577 59.3378 16.2973C59.0681 16.7368 58.8633 17.2563 58.7234 17.8556C58.5836 18.445 58.5137 19.0843 58.5137 19.7736ZM76.6896 15.3233V28H72.3741V11.787H76.4349L76.6896 15.3233ZM81.5745 11.6821L81.4996 15.6829C81.2898 15.6529 81.0351 15.628 80.7354 15.608C80.4457 15.578 80.1809 15.563 79.9412 15.563C79.3318 15.563 78.8024 15.643 78.3529 15.8028C77.9133 15.9526 77.5437 16.1774 77.244 16.4771C76.9543 16.7768 76.7346 17.1414 76.5847 17.5709C76.4449 18.0005 76.3649 18.49 76.345 19.0394L75.4759 18.7697C75.4759 17.7208 75.5808 16.7568 75.7906 15.8777C76.0003 14.9886 76.305 14.2145 76.7046 13.5551C77.1142 12.8958 77.6136 12.3864 78.203 12.0267C78.7924 11.6671 79.4667 11.4873 80.2259 11.4873C80.4657 11.4873 80.7104 11.5073 80.9601 11.5472C81.2099 11.5772 81.4147 11.6222 81.5745 11.6821ZM91.8537 24.3438V17.1214C91.8537 16.6019 91.7688 16.1574 91.599 15.7878C91.4292 15.4082 91.1644 15.1135 90.8048 14.9037C90.4552 14.6939 90.0007 14.5891 89.4412 14.5891C88.9617 14.5891 88.5472 14.674 88.1975 14.8438C87.8479 15.0036 87.5782 15.2384 87.3884 15.5481C87.1986 15.8477 87.1037 16.2024 87.1037 16.6119H82.7882C82.7882 15.9227 82.948 15.2683 83.2677 14.649C83.5874 14.0296 84.0519 13.4852 84.6613 13.0157C85.2706 12.5362 85.9949 12.1616 86.834 11.8919C87.6831 11.6222 88.6321 11.4873 89.681 11.4873C90.9397 11.4873 92.0585 11.6971 93.0375 12.1167C94.0164 12.5362 94.7856 13.1656 95.3451 14.0047C95.9145 14.8438 96.1992 15.8927 96.1992 17.1514V24.0891C96.1992 24.9782 96.2541 25.7074 96.364 26.2768C96.4739 26.8362 96.6337 27.3257 96.8435 27.7453V28H92.4831C92.2733 27.5605 92.1134 27.011 92.0036 26.3517C91.9037 25.6824 91.8537 25.0131 91.8537 24.3438ZM92.4231 18.1254L92.4531 20.5678H90.0406C89.4712 20.5678 88.9767 20.6327 88.5572 20.7626C88.1376 20.8925 87.793 21.0773 87.5233 21.317C87.2535 21.5468 87.0537 21.8165 86.9239 22.1262C86.804 22.4358 86.7441 22.7755 86.7441 23.1451C86.7441 23.5147 86.829 23.8494 86.9988 24.149C87.1686 24.4387 87.4134 24.6685 87.733 24.8383C88.0527 24.9981 88.4273 25.0781 88.8569 25.0781C89.5062 25.0781 90.0706 24.9482 90.5501 24.6885C91.0296 24.4287 91.3992 24.1091 91.6589 23.7295C91.9286 23.3499 92.0685 22.9903 92.0785 22.6506L93.2173 24.4787C93.0574 24.8883 92.8377 25.3128 92.558 25.7524C92.2883 26.1919 91.9436 26.6065 91.5241 26.9961C91.1045 27.3757 90.6 27.6903 90.0106 27.9401C89.4213 28.1798 88.722 28.2997 87.9128 28.2997C86.8839 28.2997 85.9499 28.0949 85.1108 27.6853C84.2816 27.2658 83.6223 26.6914 83.1329 25.9621C82.6534 25.2229 82.4136 24.3838 82.4136 23.4448C82.4136 22.5957 82.5734 21.8415 82.8931 21.1821C83.2128 20.5228 83.6823 19.9684 84.3016 19.5189C84.931 19.0594 85.7151 18.7147 86.6542 18.485C87.5932 18.2452 88.682 18.1254 89.9207 18.1254H92.4231ZM107.467 11.787V14.8438H98.0272V11.787H107.467ZM100.365 7.78619H104.68V23.1151C104.68 23.5846 104.74 23.9443 104.86 24.194C104.99 24.4437 105.18 24.6185 105.429 24.7184C105.679 24.8083 105.994 24.8533 106.373 24.8533C106.643 24.8533 106.883 24.8433 107.093 24.8233C107.313 24.7934 107.497 24.7634 107.647 24.7334L107.662 27.9101C107.293 28.03 106.893 28.1249 106.463 28.1948C106.034 28.2647 105.559 28.2997 105.04 28.2997C104.091 28.2997 103.262 28.1448 102.552 27.8352C101.853 27.5155 101.314 27.006 100.934 26.3068C100.555 25.6075 100.365 24.6885 100.365 23.5497V7.78619ZM114.48 11.787V28H110.15V11.787H114.48ZM109.88 7.56143C109.88 6.93209 110.1 6.41263 110.539 6.00306C110.979 5.59349 111.568 5.3887 112.307 5.3887C113.036 5.3887 113.621 5.59349 114.06 6.00306C114.51 6.41263 114.735 6.93209 114.735 7.56143C114.735 8.19077 114.51 8.71022 114.06 9.11979C113.621 9.52936 113.036 9.73415 112.307 9.73415C111.568 9.73415 110.979 9.52936 110.539 9.11979C110.1 8.71022 109.88 8.19077 109.88 7.56143ZM117.357 20.0583V19.7437C117.357 18.5549 117.527 17.461 117.866 16.4621C118.206 15.4532 118.701 14.5791 119.35 13.8398C119.999 13.1006 120.798 12.5262 121.747 12.1167C122.696 11.6971 123.785 11.4873 125.014 11.4873C126.243 11.4873 127.337 11.6971 128.296 12.1167C129.255 12.5262 130.059 13.1006 130.708 13.8398C131.367 14.5791 131.867 15.4532 132.206 16.4621C132.546 17.461 132.716 18.5549 132.716 19.7437V20.0583C132.716 21.2371 132.546 22.3309 132.206 23.3399C131.867 24.3388 131.367 25.2129 130.708 25.9621C130.059 26.7014 129.259 27.2758 128.31 27.6853C127.361 28.0949 126.273 28.2997 125.044 28.2997C123.815 28.2997 122.721 28.0949 121.762 27.6853C120.813 27.2758 120.009 26.7014 119.35 25.9621C118.701 25.2129 118.206 24.3388 117.866 23.3399C117.527 22.3309 117.357 21.2371 117.357 20.0583ZM121.672 19.7437V20.0583C121.672 20.7376 121.732 21.3719 121.852 21.9613C121.972 22.5507 122.162 23.0702 122.422 23.5197C122.691 23.9592 123.041 24.3039 123.471 24.5536C123.9 24.8034 124.425 24.9282 125.044 24.9282C125.643 24.9282 126.158 24.8034 126.587 24.5536C127.017 24.3039 127.361 23.9592 127.621 23.5197C127.881 23.0702 128.071 22.5507 128.191 21.9613C128.32 21.3719 128.385 20.7376 128.385 20.0583V19.7437C128.385 19.0843 128.32 18.465 128.191 17.8856C128.071 17.2962 127.876 16.7768 127.606 16.3272C127.347 15.8677 127.002 15.5081 126.572 15.2484C126.143 14.9886 125.623 14.8588 125.014 14.8588C124.405 14.8588 123.885 14.9886 123.456 15.2484C123.036 15.5081 122.691 15.8677 122.422 16.3272C122.162 16.7768 121.972 17.2962 121.852 17.8856C121.732 18.465 121.672 19.0843 121.672 19.7437ZM139.594 15.2484V28H135.278V11.787H139.324L139.594 15.2484ZM138.964 19.3241H137.796C137.796 18.1254 137.95 17.0465 138.26 16.0875C138.57 15.1185 139.004 14.2944 139.564 13.6151C140.123 12.9258 140.787 12.4014 141.557 12.0417C142.336 11.6721 143.205 11.4873 144.164 11.4873C144.923 11.4873 145.617 11.5972 146.247 11.817C146.876 12.0367 147.415 12.3864 147.865 12.8659C148.325 13.3454 148.674 13.9797 148.914 14.7689C149.164 15.558 149.288 16.522 149.288 17.6608V28H144.943V17.6459C144.943 16.9266 144.843 16.3672 144.643 15.9676C144.444 15.568 144.149 15.2883 143.759 15.1285C143.38 14.9587 142.91 14.8738 142.351 14.8738C141.771 14.8738 141.267 14.9886 140.837 15.2184C140.418 15.4482 140.068 15.7678 139.788 16.1774C139.519 16.577 139.314 17.0465 139.174 17.5859C139.034 18.1254 138.964 18.7047 138.964 19.3241ZM161.336 23.5197C161.336 23.21 161.246 22.9303 161.066 22.6806C160.886 22.4308 160.552 22.2011 160.062 21.9913C159.583 21.7715 158.888 21.5717 157.979 21.3919C157.16 21.2121 156.396 20.9874 155.687 20.7176C154.988 20.4379 154.378 20.1033 153.859 19.7137C153.349 19.3241 152.95 18.8646 152.66 18.3351C152.37 17.7957 152.225 17.1813 152.225 16.4921C152.225 15.8128 152.37 15.1734 152.66 14.5741C152.96 13.9747 153.384 13.4453 153.934 12.9857C154.493 12.5162 155.172 12.1516 155.971 11.8919C156.781 11.6222 157.69 11.4873 158.699 11.4873C160.107 11.4873 161.316 11.7121 162.325 12.1616C163.344 12.6111 164.123 13.2305 164.662 14.0197C165.212 14.7988 165.487 15.6879 165.487 16.6869H161.171C161.171 16.2673 161.081 15.8927 160.901 15.563C160.732 15.2234 160.462 14.9587 160.092 14.7689C159.733 14.5691 159.263 14.4692 158.684 14.4692C158.204 14.4692 157.79 14.5541 157.44 14.7239C157.09 14.8837 156.821 15.1035 156.631 15.3832C156.451 15.6529 156.361 15.9526 156.361 16.2823C156.361 16.532 156.411 16.7568 156.511 16.9566C156.621 17.1464 156.796 17.3212 157.035 17.481C157.275 17.6409 157.585 17.7907 157.964 17.9306C158.354 18.0604 158.833 18.1803 159.403 18.2902C160.572 18.5299 161.616 18.8446 162.535 19.2342C163.454 19.6138 164.183 20.1332 164.722 20.7926C165.262 21.4419 165.531 22.296 165.531 23.3549C165.531 24.0741 165.372 24.7334 165.052 25.3328C164.732 25.9322 164.273 26.4566 163.673 26.9061C163.074 27.3457 162.355 27.6903 161.516 27.9401C160.687 28.1798 159.753 28.2997 158.714 28.2997C157.205 28.2997 155.927 28.03 154.878 27.4905C153.839 26.9511 153.05 26.2668 152.51 25.4377C151.981 24.5986 151.716 23.7395 151.716 22.8604H155.807C155.827 23.4498 155.976 23.9243 156.256 24.2839C156.546 24.6435 156.911 24.9032 157.35 25.0631C157.8 25.2229 158.284 25.3028 158.804 25.3028C159.363 25.3028 159.827 25.2279 160.197 25.0781C160.567 24.9182 160.846 24.7085 161.036 24.4487C161.236 24.179 161.336 23.8693 161.336 23.5197Z" fill="black"/>
</svg>
