<svg width="105" height="40" viewBox="0 0 105 40" fill="none" xmlns="http://www.w3.org/2000/svg">
<path d="M20.1589 29.8608C20.1589 32.1633 18.302 34.0238 16.0187 34.0238C13.7355 34.0238 11.8785 32.1633 11.8785 29.8608C11.8785 27.5582 13.7355 25.6977 16.0187 25.6977C18.302 25.6977 20.1589 27.5582 20.1589 29.8608Z" stroke="#FBDA16" stroke-width="1.53439"/>
<path fill-rule="evenodd" clip-rule="evenodd" d="M14.8892 29.1192L13.6615 31.8943C13.6294 31.967 13.6365 32.0511 13.6804 32.1174C13.7429 32.2114 13.8638 32.2472 13.9673 32.2022L16.7486 30.9939C16.9674 30.8988 17.1408 30.7225 17.2322 30.5022L18.3798 27.735C18.409 27.6645 18.393 27.5834 18.3392 27.5294C18.285 27.475 18.2033 27.4588 18.1325 27.4884L15.3756 28.6424C15.1585 28.7333 14.9844 28.9039 14.8892 29.1192ZM16.019 30.3082C16.2654 30.3082 16.4651 30.1075 16.4651 29.8599C16.4651 29.6124 16.2654 29.4117 16.019 29.4117C15.7726 29.4117 15.5729 29.6124 15.5729 29.8599C15.5729 30.1075 15.7726 30.3082 16.019 30.3082Z" fill="#FBDA16"/>
<path d="M2.67415 22.51V35.2077H1.60645V22.51H2.67415ZM10.4867 22.51L5.03526 28.3269L2.29221 31.0391L2.18804 29.8443L4.3929 27.542L9.14985 22.51H10.4867ZM9.60124 35.2077L4.28006 28.6844L4.92242 27.8211L10.8946 35.2077H9.60124Z" fill="white"/>
<path d="M23.7042 27.7251V35.2077H22.6626V25.7716H23.6608L23.7042 27.7251ZM23.5133 29.9054L23.0098 29.6437C23.0445 29.0856 23.1487 28.5623 23.3223 28.074C23.5017 27.5856 23.7505 27.1554 24.0688 26.7833C24.3871 26.4112 24.7691 26.1205 25.2147 25.9112C25.6603 25.7019 26.1666 25.5972 26.7338 25.5972C27.1909 25.5972 27.6047 25.6612 27.9751 25.7891C28.3512 25.9112 28.6695 26.1059 28.9299 26.3734C29.1961 26.635 29.4016 26.978 29.5463 27.4025C29.6909 27.8269 29.7633 28.3356 29.7633 28.9286V35.2077H28.7303V28.9635C28.7303 28.3356 28.6319 27.8443 28.4351 27.4897C28.2442 27.135 27.9751 26.8821 27.6279 26.7309C27.2864 26.5798 26.89 26.5042 26.4386 26.5042C25.9062 26.5042 25.4548 26.6147 25.0845 26.8356C24.7199 27.0507 24.4218 27.3327 24.1904 27.6815C23.9647 28.0245 23.7968 28.3937 23.6869 28.7891C23.5769 29.1786 23.5191 29.5507 23.5133 29.9054ZM29.7546 29.0856L29.0601 29.103C29.0891 28.6437 29.1933 28.2048 29.3726 27.7862C29.5578 27.3676 29.8096 26.9955 30.1279 26.6699C30.4461 26.3385 30.8252 26.0769 31.265 25.885C31.7106 25.6931 32.2112 25.5972 32.7667 25.5972C33.2529 25.5972 33.6869 25.6641 34.0688 25.7978C34.4508 25.9257 34.772 26.1321 35.0324 26.417C35.2986 26.6961 35.5011 27.0536 35.64 27.4897C35.7789 27.9257 35.8483 28.449 35.8483 29.0594V35.2077H34.8067V29.0507C34.8067 28.3821 34.7083 27.8647 34.5115 27.4984C34.3206 27.1263 34.0544 26.8676 33.7129 26.7222C33.3715 26.5769 32.9722 26.5042 32.515 26.5042C32.0636 26.51 31.6672 26.5943 31.3258 26.7571C30.9843 26.9141 30.6979 27.1234 30.4664 27.385C30.2407 27.6408 30.0671 27.917 29.9456 28.2135C29.8298 28.51 29.7662 28.8007 29.7546 29.0856Z" fill="white"/>
<path d="M39.5115 27.5856V38.8356H38.4699V25.7716H39.4421L39.5115 27.5856ZM46.0393 30.4025V30.5856C46.0393 31.2891 45.9583 31.9344 45.7963 32.5216C45.6342 33.1088 45.3998 33.6176 45.0931 34.0478C44.7922 34.4722 44.4189 34.8007 43.9733 35.0333C43.5277 35.2658 43.0214 35.3821 42.4542 35.3821C41.8929 35.3821 41.3923 35.2949 40.9525 35.1205C40.5127 34.9461 40.1336 34.699 39.8154 34.3792C39.5029 34.0536 39.2511 33.6757 39.0602 33.2455C38.875 32.8094 38.7448 32.3327 38.6695 31.8152V29.3995C38.7563 28.8298 38.8981 28.3123 39.0949 27.8472C39.2916 27.3821 39.5434 26.9809 39.8501 26.6437C40.1626 26.3065 40.5329 26.0478 40.9612 25.8676C41.3894 25.6873 41.8784 25.5972 42.4282 25.5972C43.0011 25.5972 43.5104 25.7106 43.956 25.9373C44.4074 26.1583 44.7864 26.4809 45.0931 26.9054C45.4056 27.324 45.64 27.8298 45.7963 28.4228C45.9583 29.01 46.0393 29.6699 46.0393 30.4025ZM44.9976 30.5856V30.4025C44.9976 29.8501 44.9398 29.3385 44.824 28.8676C44.7141 28.3966 44.5434 27.9868 44.3119 27.6379C44.0862 27.2833 43.7968 27.0071 43.4438 26.8094C43.0966 26.6118 42.6828 26.5129 42.2025 26.5129C41.7048 26.5129 41.2795 26.5972 40.9265 26.7658C40.5792 26.9286 40.2899 27.1466 40.0584 27.4199C39.8269 27.6873 39.6446 27.9809 39.5115 28.3007C39.3784 28.6205 39.2801 28.9344 39.2164 29.2426V32.0245C39.3264 32.4664 39.5029 32.8763 39.7459 33.2542C39.989 33.6263 40.313 33.9257 40.7181 34.1524C41.129 34.3734 41.6296 34.4838 42.2199 34.4838C42.6944 34.4838 43.1053 34.385 43.4525 34.1873C43.7997 33.9897 44.0862 33.7135 44.3119 33.3588C44.5434 33.0042 44.7141 32.5914 44.824 32.1205C44.9398 31.6495 44.9976 31.1379 44.9976 30.5856Z" fill="white"/>
<path d="M54.0601 33.5158V28.6495C54.0601 28.2019 53.9676 27.8152 53.7824 27.4897C53.5972 27.1641 53.3252 26.9141 52.9664 26.7397C52.6076 26.5652 52.1649 26.478 51.6383 26.478C51.1522 26.478 50.7181 26.5652 50.3362 26.7397C49.96 26.9083 49.662 27.1379 49.4421 27.4286C49.228 27.7135 49.1209 28.0304 49.1209 28.3792L48.0792 28.3705C48.0792 28.0158 48.1661 27.6728 48.3397 27.3414C48.5133 27.01 48.7592 26.7135 49.0775 26.4519C49.3958 26.1902 49.7748 25.9838 50.2147 25.8327C50.6603 25.6757 51.1493 25.5972 51.6817 25.5972C52.353 25.5972 52.9432 25.7106 53.4525 25.9373C53.9676 26.1641 54.3698 26.5042 54.6591 26.9577C54.9485 27.4112 55.0931 27.9809 55.0931 28.667V33.228C55.0931 33.5536 55.1163 33.8908 55.1626 34.2397C55.2147 34.5885 55.287 34.8763 55.3796 35.103V35.2077H54.2772C54.2077 34.9984 54.1527 34.7368 54.1122 34.4228C54.0775 34.103 54.0601 33.8007 54.0601 33.5158ZM54.3032 29.7135L54.3206 30.5158H52.2806C51.7482 30.5158 51.2708 30.5652 50.8483 30.6641C50.4317 30.7571 50.0787 30.8966 49.7893 31.0827C49.5 31.2629 49.2772 31.4809 49.1209 31.7368C48.9704 31.9926 48.8952 32.2833 48.8952 32.6088C48.8952 32.9461 48.9791 33.2542 49.147 33.5333C49.3206 33.8123 49.5636 34.0362 49.8761 34.2048C50.1944 34.3676 50.5706 34.449 51.0046 34.449C51.5833 34.449 52.0926 34.3414 52.5324 34.1263C52.978 33.9112 53.3455 33.6292 53.6348 33.2804C53.9242 32.9315 54.118 32.5507 54.2164 32.1379L54.6678 32.7397C54.5926 33.0304 54.4537 33.3298 54.2511 33.6379C54.0544 33.9402 53.7968 34.2251 53.4785 34.4926C53.1603 34.7542 52.7841 34.9693 52.3501 35.1379C51.9218 35.3007 51.4357 35.3821 50.8917 35.3821C50.2783 35.3821 49.743 35.2658 49.2858 35.0333C48.8345 34.8007 48.4814 34.4838 48.2268 34.0827C47.978 33.6757 47.8535 33.2164 47.8535 32.7048C47.8535 32.2397 47.9519 31.824 48.1487 31.4577C48.3455 31.0856 48.629 30.7716 48.9994 30.5158C49.3755 30.2542 49.8269 30.0565 50.3536 29.9228C50.886 29.7833 51.482 29.7135 52.1417 29.7135H54.3032Z" fill="white"/>
<path d="M63.5046 32.8007C63.5046 32.5449 63.4409 32.292 63.3136 32.042C63.1863 31.792 62.9404 31.5623 62.5758 31.353C62.217 31.1437 61.6875 30.9664 60.9872 30.8211C60.4664 30.7048 60.0005 30.574 59.5897 30.4286C59.1846 30.2833 58.8431 30.1088 58.5654 29.9054C58.2876 29.7019 58.0764 29.4577 57.9317 29.1728C57.787 28.8879 57.7147 28.5507 57.7147 28.1612C57.7147 27.8123 57.7899 27.4838 57.9404 27.1757C58.0966 26.8618 58.3165 26.5885 58.6001 26.3559C58.8894 26.1176 59.2367 25.9315 59.6417 25.7978C60.0526 25.6641 60.5127 25.5972 61.022 25.5972C61.7453 25.5972 62.3645 25.7222 62.8796 25.9722C63.4004 26.2164 63.7968 26.5507 64.0688 26.9751C64.3466 27.3995 64.4855 27.8792 64.4855 28.4141H63.4525C63.4525 28.0885 63.357 27.7804 63.166 27.4897C62.9809 27.199 62.706 26.9606 62.3414 26.7745C61.9826 26.5885 61.5428 26.4955 61.022 26.4955C60.4838 26.4955 60.0468 26.5769 59.7112 26.7397C59.3755 26.9025 59.1296 27.1088 58.9733 27.3588C58.8229 27.6088 58.7476 27.8676 58.7476 28.135C58.7476 28.3443 58.7795 28.5362 58.8431 28.7106C58.9126 28.8792 59.0341 29.0362 59.2077 29.1815C59.3871 29.3269 59.6417 29.4635 59.9716 29.5914C60.3015 29.7193 60.7297 29.8443 61.2563 29.9664C62.0144 30.135 62.6336 30.3414 63.114 30.5856C63.6001 30.824 63.9589 31.1205 64.1904 31.4751C64.4218 31.824 64.5376 32.2484 64.5376 32.7484C64.5376 33.1379 64.4566 33.4955 64.2945 33.8211C64.1325 34.1408 63.8981 34.417 63.5914 34.6495C63.2905 34.8821 62.9259 35.0623 62.4976 35.1902C62.0752 35.3181 61.6007 35.3821 61.074 35.3821C60.2812 35.3821 59.6099 35.2513 59.0601 34.9897C58.5162 34.7222 58.1024 34.3734 57.8188 33.9431C57.541 33.5071 57.4022 33.0449 57.4022 32.5565H58.4351C58.4699 33.0449 58.6232 33.4315 58.8952 33.7164C59.1672 33.9955 59.5 34.1931 59.8935 34.3094C60.2928 34.4257 60.6863 34.4838 61.074 34.4838C61.6064 34.4838 62.052 34.4054 62.4108 34.2484C62.7696 34.0914 63.0416 33.885 63.2268 33.6292C63.412 33.3734 63.5046 33.0972 63.5046 32.8007Z" fill="white"/>
<path d="M72.515 32.8007C72.515 32.5449 72.4513 32.292 72.324 32.042C72.1967 31.792 71.9508 31.5623 71.5862 31.353C71.2274 31.1437 70.6979 30.9664 69.9976 30.8211C69.4768 30.7048 69.011 30.574 68.6001 30.4286C68.195 30.2833 67.8535 30.1088 67.5758 29.9054C67.298 29.7019 67.0868 29.4577 66.9421 29.1728C66.7974 28.8879 66.7251 28.5507 66.7251 28.1612C66.7251 27.8123 66.8003 27.4838 66.9508 27.1757C67.107 26.8618 67.3269 26.5885 67.6105 26.3559C67.8998 26.1176 68.2471 25.9315 68.6522 25.7978C69.063 25.6641 69.5231 25.5972 70.0324 25.5972C70.7557 25.5972 71.375 25.7222 71.89 25.9722C72.4108 26.2164 72.8072 26.5507 73.0792 26.9751C73.357 27.3995 73.4959 27.8792 73.4959 28.4141H72.4629C72.4629 28.0885 72.3674 27.7804 72.1765 27.4897C71.9913 27.199 71.7164 26.9606 71.3518 26.7745C70.993 26.5885 70.5532 26.4955 70.0324 26.4955C69.4942 26.4955 69.0573 26.5769 68.7216 26.7397C68.3859 26.9025 68.14 27.1088 67.9837 27.3588C67.8333 27.6088 67.7581 27.8676 67.7581 28.135C67.7581 28.3443 67.7899 28.5362 67.8535 28.7106C67.923 28.8792 68.0445 29.0362 68.2181 29.1815C68.3975 29.3269 68.6522 29.4635 68.982 29.5914C69.3119 29.7193 69.7401 29.8443 70.2667 29.9664C71.0248 30.135 71.6441 30.3414 72.1244 30.5856C72.6105 30.824 72.9693 31.1205 73.2008 31.4751C73.4323 31.824 73.548 32.2484 73.548 32.7484C73.548 33.1379 73.467 33.4955 73.3049 33.8211C73.1429 34.1408 72.9085 34.417 72.6018 34.6495C72.3009 34.8821 71.9363 35.0623 71.5081 35.1902C71.0856 35.3181 70.6111 35.3821 70.0844 35.3821C69.2916 35.3821 68.6203 35.2513 68.0706 34.9897C67.5266 34.7222 67.1128 34.3734 66.8292 33.9431C66.5515 33.5071 66.4126 33.0449 66.4126 32.5565H67.4456C67.4803 33.0449 67.6336 33.4315 67.9056 33.7164C68.1776 33.9955 68.5104 34.1931 68.9039 34.3094C69.3032 34.4257 69.6967 34.4838 70.0844 34.4838C70.6169 34.4838 71.0625 34.4054 71.4212 34.2484C71.78 34.0914 72.052 33.885 72.2372 33.6292C72.4224 33.3734 72.515 33.0972 72.515 32.8007Z" fill="white"/>
<path d="M4.06008 3.74844V16.9752H1.35645V3.74844H4.06008Z" fill="white"/>
<path d="M8.9881 9.24444V16.9752H6.38393V7.14596H8.82534L8.9881 9.24444ZM8.60833 11.7154H7.90303C7.90303 10.9886 7.99647 10.3346 8.18334 9.75316C8.37021 9.16571 8.63244 8.66607 8.97002 8.25425C9.30759 7.83637 9.70847 7.51842 10.1726 7.3004C10.6428 7.07632 11.1673 6.96428 11.746 6.96428C12.2041 6.96428 12.6231 7.0309 13.0029 7.16413C13.3826 7.29737 13.7082 7.50934 13.9794 7.80003C14.2567 8.09073 14.4677 8.4753 14.6124 8.95374C14.7631 9.43218 14.8384 10.0166 14.8384 10.707V16.9752H12.2162V10.6979C12.2162 10.2619 12.1559 9.92273 12.0353 9.68048C11.9148 9.43824 11.7369 9.26866 11.5018 9.17176C11.2728 9.06881 10.9895 9.01733 10.6519 9.01733C10.3022 9.01733 9.99782 9.08698 9.73861 9.22627C9.48542 9.36556 9.27444 9.55936 9.10565 9.80766C8.94289 10.0499 8.81931 10.3346 8.73492 10.6616C8.65052 10.9886 8.60833 11.3399 8.60833 11.7154Z" fill="white"/>
<path d="M21.6111 7.14596V8.99916H15.9145V7.14596H21.6111ZM17.3251 4.72046H19.9292V14.0137C19.9292 14.2983 19.9654 14.5164 20.0377 14.6678C20.1161 14.8192 20.2306 14.9252 20.3813 14.9857C20.532 15.0402 20.7219 15.0675 20.951 15.0675C21.1138 15.0675 21.2584 15.0614 21.385 15.0493C21.5176 15.0311 21.6292 15.013 21.7196 14.9948L21.7286 16.9207C21.5056 16.9933 21.2645 17.0509 21.0052 17.0933C20.746 17.1357 20.4597 17.1569 20.1462 17.1569C19.5736 17.1569 19.0732 17.063 18.6452 16.8753C18.2232 16.6815 17.8977 16.3726 17.6687 15.9487C17.4396 15.5247 17.3251 14.9675 17.3251 14.2771V4.72046Z" fill="white"/>
<path d="M27.597 17.1569C26.8375 17.1569 26.1563 17.0357 25.5535 16.7935C24.9507 16.5452 24.4383 16.203 24.0163 15.767C23.6004 15.3309 23.2809 14.8252 23.0578 14.2499C22.8348 13.6685 22.7233 13.0508 22.7233 12.3967V12.0333C22.7233 11.2884 22.8288 10.6071 23.0397 9.98935C23.2507 9.37162 23.5521 8.83564 23.944 8.38143C24.3418 7.92721 24.8241 7.57898 25.3907 7.33674C25.9574 7.08843 26.5964 6.96428 27.3077 6.96428C28.0009 6.96428 28.6158 7.07935 29.1523 7.30948C29.6888 7.53962 30.1379 7.86665 30.4996 8.29059C30.8673 8.71452 31.1446 9.22324 31.3315 9.81675C31.5184 10.4042 31.6118 11.0583 31.6118 11.779V12.8691H23.8355V11.1249H29.0528V10.925C29.0528 10.5617 28.9865 10.2377 28.8539 9.95301C28.7273 9.66232 28.5344 9.43218 28.2752 9.26261C28.016 9.09303 27.6844 9.00825 27.2806 9.00825C26.937 9.00825 26.6416 9.08395 26.3944 9.23535C26.1473 9.38676 25.9453 9.59873 25.7886 9.87126C25.6379 10.1438 25.5234 10.4648 25.445 10.8342C25.3727 11.1976 25.3365 11.5973 25.3365 12.0333V12.3967C25.3365 12.7903 25.3907 13.1537 25.4992 13.4868C25.6138 13.8199 25.7735 14.1076 25.9785 14.3498C26.1895 14.5921 26.4426 14.7798 26.738 14.913C27.0394 15.0463 27.38 15.1129 27.7598 15.1129C28.23 15.1129 28.667 15.0221 29.0709 14.8404C29.4808 14.6526 29.8335 14.371 30.1289 13.9955L31.3948 15.3763C31.1898 15.6731 30.9095 15.9577 30.5539 16.2303C30.2042 16.5028 29.7823 16.7269 29.2879 16.9025C28.7936 17.0721 28.23 17.1569 27.597 17.1569Z" fill="white"/>
<path d="M39.2887 7.14596H41.6487V16.6481C41.6487 17.5445 41.4498 18.3045 41.0519 18.9283C40.6601 19.5581 40.1115 20.0336 39.4062 20.3545C38.7009 20.6816 37.8811 20.8451 36.9467 20.8451C36.5368 20.8451 36.1028 20.7906 35.6446 20.6816C35.1925 20.5726 34.7585 20.403 34.3426 20.1729C33.9326 19.9427 33.589 19.652 33.3117 19.3008L34.4601 17.7564C34.7615 18.1077 35.1111 18.3802 35.509 18.574C35.9069 18.7739 36.3469 18.8738 36.8292 18.8738C37.2994 18.8738 37.6972 18.786 38.0228 18.6104C38.3483 18.4408 38.5984 18.1894 38.7733 17.8564C38.9481 17.5293 39.0355 17.1326 39.0355 16.6663V9.41704L39.2887 7.14596ZM32.7059 12.1787V11.9879C32.7059 11.2369 32.7963 10.5556 32.9772 9.94393C33.1641 9.3262 33.4263 8.79628 33.7639 8.35418C34.1075 7.91207 34.5234 7.5699 35.0117 7.32765C35.5 7.0854 36.0515 6.96428 36.6664 6.96428C37.3175 6.96428 37.863 7.0854 38.3031 7.32765C38.7431 7.5699 39.1048 7.9151 39.3881 8.36326C39.6715 8.80536 39.8915 9.32923 40.0482 9.93485C40.211 10.5344 40.3376 11.1915 40.428 11.9061V12.324C40.3376 13.0084 40.2019 13.6443 40.0211 14.2317C39.8402 14.8192 39.6021 15.3339 39.3068 15.7761C39.0114 16.2121 38.6437 16.5512 38.2036 16.7935C37.7696 17.0357 37.2511 17.1569 36.6483 17.1569C36.0455 17.1569 35.5 17.0327 35.0117 16.7844C34.5294 16.5361 34.1165 16.1879 33.7729 15.7397C33.4293 15.2916 33.1641 14.7647 32.9772 14.159C32.7963 13.5534 32.7059 12.8933 32.7059 12.1787ZM35.3101 11.9879V12.1787C35.3101 12.5844 35.3493 12.9629 35.4276 13.3142C35.506 13.6655 35.6266 13.9774 35.7893 14.2499C35.9581 14.5164 36.1661 14.7253 36.4132 14.8767C36.6664 15.0221 36.9648 15.0947 37.3084 15.0947C37.7846 15.0947 38.1735 14.9948 38.4749 14.7949C38.7763 14.589 39.0023 14.3074 39.153 13.9501C39.3037 13.5928 39.3911 13.181 39.4153 12.7146V11.5246C39.4032 11.1431 39.352 10.8009 39.2615 10.4981C39.1711 10.1892 39.0445 9.92576 38.8818 9.70774C38.719 9.48971 38.508 9.32014 38.2488 9.19902C37.9896 9.07789 37.6822 9.01733 37.3265 9.01733C36.9829 9.01733 36.6845 9.09606 36.4313 9.25352C36.1842 9.40493 35.9762 9.61387 35.8074 9.88034C35.6446 10.1468 35.5211 10.4617 35.4367 10.8251C35.3523 11.1824 35.3101 11.57 35.3101 11.9879Z" fill="white"/>
<path d="M46.2783 9.28986V16.9752H43.6742V7.14596H46.1246L46.2783 9.28986ZM49.2261 7.08237L49.1809 9.50788C49.0543 9.48971 48.9006 9.47457 48.7197 9.46246C48.5449 9.44429 48.3852 9.43521 48.2405 9.43521C47.8728 9.43521 47.5533 9.48366 47.282 9.58056C47.0168 9.6714 46.7937 9.80766 46.6129 9.98935C46.4381 10.171 46.3054 10.3921 46.215 10.6525C46.1306 10.9129 46.0824 11.2097 46.0704 11.5428L45.5459 11.3792C45.5459 10.7433 45.6092 10.1589 45.7358 9.62598C45.8624 9.08698 46.0462 8.61762 46.2874 8.21791C46.5345 7.8182 46.8359 7.50934 47.1916 7.29131C47.5473 7.07329 47.9541 6.96428 48.4123 6.96428C48.557 6.96428 48.7047 6.97639 48.8554 7.00062C49.0061 7.01878 49.1296 7.04604 49.2261 7.08237Z" fill="white"/>
<path d="M55.4291 14.7586V10.38C55.4291 10.0651 55.3778 9.79555 55.2754 9.57147C55.1729 9.34134 55.0131 9.16268 54.7961 9.0355C54.5851 8.90832 54.3108 8.84473 53.9733 8.84473C53.6839 8.84473 53.4338 8.89621 53.2228 8.99916C53.0118 9.09606 52.849 9.23838 52.7345 9.42612C52.6199 9.60781 52.5627 9.82281 52.5627 10.0711H49.9585C49.9585 9.65323 50.055 9.25655 50.2479 8.88107C50.4408 8.50558 50.7211 8.17552 51.0888 7.89088C51.4565 7.60018 51.8936 7.37307 52.3999 7.20955C52.9123 7.04604 53.485 6.96428 54.118 6.96428C54.8775 6.96428 55.5527 7.09146 56.1434 7.34582C56.7342 7.60018 57.1983 7.98172 57.5359 8.49044C57.8795 8.99916 58.0513 9.63506 58.0513 10.3981V14.6042C58.0513 15.1432 58.0845 15.5853 58.1508 15.9305C58.2171 16.2696 58.3135 16.5664 58.4401 16.8207V16.9752H55.8088C55.6823 16.7087 55.5858 16.3756 55.5195 15.9759C55.4592 15.5701 55.4291 15.1644 55.4291 14.7586ZM55.7727 10.9886L55.7908 12.4694H54.335C53.9914 12.4694 53.693 12.5087 53.4398 12.5875C53.1866 12.6662 52.9786 12.7782 52.8159 12.9236C52.6531 13.0629 52.5325 13.2264 52.4542 13.4141C52.3818 13.6019 52.3457 13.8078 52.3457 14.0319C52.3457 14.2559 52.3969 14.4588 52.4994 14.6405C52.6019 14.8161 52.7496 14.9554 52.9425 15.0584C53.1354 15.1553 53.3614 15.2037 53.6206 15.2037C54.0125 15.2037 54.353 15.125 54.6424 14.9675C54.9318 14.8101 55.1548 14.6163 55.3115 14.3862C55.4743 14.156 55.5587 13.938 55.5647 13.7321L56.2519 14.8404C56.1555 15.0887 56.0229 15.3461 55.8541 15.6125C55.6913 15.879 55.4833 16.1303 55.2301 16.3665C54.977 16.5967 54.6725 16.7874 54.3169 16.9388C53.9612 17.0842 53.5392 17.1569 53.051 17.1569C52.4301 17.1569 51.8664 17.0327 51.3601 16.7844C50.8597 16.53 50.4619 16.1818 50.1665 15.7397C49.8771 15.2916 49.7325 14.7828 49.7325 14.2136C49.7325 13.6988 49.8289 13.2415 50.0218 12.8418C50.2147 12.4421 50.498 12.106 50.8718 11.8335C51.2516 11.5549 51.7248 11.3459 52.2914 11.2066C52.8581 11.0613 53.5151 10.9886 54.2626 10.9886H55.7727Z" fill="white"/>
<path d="M64.8511 7.14596V8.99916H59.1545V7.14596H64.8511ZM60.5651 4.72046H63.1692V14.0137C63.1692 14.2983 63.2054 14.5164 63.2777 14.6678C63.3561 14.8192 63.4706 14.9252 63.6213 14.9857C63.7721 15.0402 63.9619 15.0675 64.191 15.0675C64.3538 15.0675 64.4984 15.0614 64.625 15.0493C64.7577 15.0311 64.8692 15.013 64.9596 14.9948L64.9686 16.9207C64.7456 16.9933 64.5045 17.0509 64.2453 17.0933C63.986 17.1357 63.6997 17.1569 63.3862 17.1569C62.8136 17.1569 62.3132 17.063 61.8852 16.8753C61.4633 16.6815 61.1377 16.3726 60.9087 15.9487C60.6796 15.5247 60.5651 14.9675 60.5651 14.2771V4.72046Z" fill="white"/>
<path d="M69.0829 7.14596V16.9752H66.4697V7.14596H69.0829ZM66.3069 4.58419C66.3069 4.20265 66.4395 3.88773 66.7048 3.63942C66.97 3.39112 67.3257 3.26697 67.7717 3.26697C68.2118 3.26697 68.5644 3.39112 68.8297 3.63942C69.1009 3.88773 69.2366 4.20265 69.2366 4.58419C69.2366 4.96573 69.1009 5.28065 68.8297 5.52896C68.5644 5.77726 68.2118 5.90142 67.7717 5.90142C67.3257 5.90142 66.97 5.77726 66.7048 5.52896C66.4395 5.28065 66.3069 4.96573 66.3069 4.58419Z" fill="white"/>
<path d="M70.819 12.1605V11.9697C70.819 11.249 70.9214 10.5859 71.1264 9.98027C71.3314 9.36859 71.6298 8.83867 72.0216 8.39051C72.4134 7.94236 72.8957 7.59412 73.4684 7.34582C74.041 7.09146 74.6981 6.96428 75.4396 6.96428C76.181 6.96428 76.8411 7.09146 77.4198 7.34582C77.9985 7.59412 78.4838 7.94236 78.8756 8.39051C79.2735 8.83867 79.5749 9.36859 79.7798 9.98027C79.9848 10.5859 80.0873 11.249 80.0873 11.9697V12.1605C80.0873 12.8751 79.9848 13.5383 79.7798 14.15C79.5749 14.7556 79.2735 15.2855 78.8756 15.7397C78.4838 16.1879 78.0015 16.5361 77.4288 16.7844C76.8562 17.0327 76.1991 17.1569 75.4576 17.1569C74.7162 17.1569 74.0561 17.0327 73.4774 16.7844C72.9047 16.5361 72.4194 16.1879 72.0216 15.7397C71.6298 15.2855 71.3314 14.7556 71.1264 14.15C70.9214 13.5383 70.819 12.8751 70.819 12.1605ZM73.4231 11.9697V12.1605C73.4231 12.5723 73.4593 12.9569 73.5316 13.3142C73.604 13.6715 73.7185 13.9864 73.8753 14.259C74.038 14.5254 74.249 14.7344 74.5082 14.8858C74.7674 15.0372 75.0839 15.1129 75.4576 15.1129C75.8193 15.1129 76.1298 15.0372 76.389 14.8858C76.6482 14.7344 76.8562 14.5254 77.0129 14.259C77.1696 13.9864 77.2842 13.6715 77.3565 13.3142C77.4349 12.9569 77.4741 12.5723 77.4741 12.1605V11.9697C77.4741 11.57 77.4349 11.1945 77.3565 10.8433C77.2842 10.486 77.1666 10.171 77.0039 9.89851C76.8471 9.61992 76.6392 9.4019 76.38 9.24444C76.1207 9.08698 75.8073 9.00825 75.4396 9.00825C75.0718 9.00825 74.7584 9.08698 74.4992 9.24444C74.246 9.4019 74.038 9.61992 73.8753 9.89851C73.7185 10.171 73.604 10.486 73.5316 10.8433C73.4593 11.1945 73.4231 11.57 73.4231 11.9697Z" fill="white"/>
<path d="M84.2377 9.24444V16.9752H81.6335V7.14596H84.0749L84.2377 9.24444ZM83.8579 11.7154H83.1526C83.1526 10.9886 83.246 10.3346 83.4329 9.75316C83.6198 9.16571 83.882 8.66607 84.2196 8.25425C84.5572 7.83637 84.958 7.51842 85.4222 7.3004C85.8924 7.07632 86.4168 6.96428 86.9955 6.96428C87.4537 6.96428 87.8726 7.0309 88.2524 7.16413C88.6322 7.29737 88.9577 7.50934 89.229 7.80003C89.5063 8.09073 89.7173 8.4753 89.8619 8.95374C90.0126 9.43218 90.088 10.0166 90.088 10.707V16.9752H87.4657V10.6979C87.4657 10.2619 87.4055 9.92273 87.2849 9.68048C87.1643 9.43824 86.9865 9.26866 86.7514 9.17176C86.5223 9.06881 86.239 9.01733 85.9014 9.01733C85.5518 9.01733 85.2474 9.08698 84.9882 9.22627C84.735 9.36556 84.524 9.55936 84.3552 9.80766C84.1924 10.0499 84.0689 10.3346 83.9845 10.6616C83.9001 10.9886 83.8579 11.3399 83.8579 11.7154Z" fill="white"/>
<path d="M97.3579 14.259C97.3579 14.0712 97.3037 13.9017 97.1952 13.7503C97.0867 13.5988 96.8847 13.4596 96.5894 13.3324C96.3 13.1991 95.8811 13.078 95.3325 12.969C94.8382 12.86 94.377 12.7237 93.949 12.5602C93.5271 12.3906 93.1593 12.1878 92.8459 11.9516C92.5384 11.7154 92.2973 11.4368 92.1225 11.1158C91.9477 10.7888 91.8603 10.4163 91.8603 9.99844C91.8603 9.58661 91.9477 9.19902 92.1225 8.83565C92.3033 8.47227 92.5595 8.15129 92.8911 7.87271C93.2287 7.58807 93.6386 7.36702 94.1208 7.20955C94.6091 7.04604 95.1577 6.96428 95.7665 6.96428C96.6165 6.96428 97.3459 7.10054 97.9547 7.37307C98.5696 7.6456 99.0398 8.02109 99.3653 8.49953C99.6969 8.97191 99.8627 9.51091 99.8627 10.1165H97.2585C97.2585 9.86217 97.2042 9.63506 97.0957 9.43521C96.9932 9.2293 96.8305 9.06881 96.6074 8.95374C96.3904 8.83262 96.1071 8.77205 95.7575 8.77205C95.4681 8.77205 95.218 8.82353 95.007 8.92649C94.796 9.02339 94.6332 9.15662 94.5187 9.3262C94.4102 9.48971 94.3559 9.6714 94.3559 9.87126C94.3559 10.0227 94.3861 10.1589 94.4464 10.28C94.5127 10.3951 94.6181 10.5011 94.7628 10.598C94.9075 10.6949 95.0944 10.7857 95.3234 10.8705C95.5585 10.9493 95.8479 11.0219 96.1915 11.0886C96.8968 11.2339 97.5267 11.4247 98.0813 11.6609C98.6359 11.891 99.076 12.2059 99.4015 12.6056C99.727 12.9993 99.8898 13.5171 99.8898 14.159C99.8898 14.5951 99.7933 14.9948 99.6004 15.3582C99.4075 15.7215 99.1302 16.0395 98.7685 16.312C98.4069 16.5785 97.9728 16.7874 97.4665 16.9388C96.9661 17.0842 96.4025 17.1569 95.7756 17.1569C94.8653 17.1569 94.0937 16.9933 93.4607 16.6663C92.8338 16.3393 92.3576 15.9244 92.0321 15.4218C91.7126 14.913 91.5528 14.3922 91.5528 13.8593H94.0214C94.0334 14.2166 94.1238 14.5042 94.2926 14.7223C94.4675 14.9403 94.6875 15.0978 94.9527 15.1947C95.224 15.2916 95.5164 15.34 95.8298 15.34C96.1674 15.34 96.4477 15.2946 96.6707 15.2037C96.8938 15.1068 97.0626 14.9797 97.1771 14.8222C97.2977 14.6587 97.3579 14.4709 97.3579 14.259Z" fill="white"/>
</svg>