<svg width="105" height="40" viewBox="0 0 105 40" fill="none" xmlns="http://www.w3.org/2000/svg">
<path d="M20.1589 29.8609C20.1589 32.1634 18.302 34.0239 16.0187 34.0239C13.7355 34.0239 11.8785 32.1634 11.8785 29.8609C11.8785 27.5584 13.7355 25.6979 16.0187 25.6979C18.302 25.6979 20.1589 27.5584 20.1589 29.8609Z" stroke="#FBDA16" stroke-width="1.53439"/>
<path fill-rule="evenodd" clip-rule="evenodd" d="M14.8892 29.1191L13.6615 31.8942C13.6294 31.9669 13.6365 32.051 13.6804 32.1172C13.7429 32.2113 13.8638 32.2471 13.9673 32.2021L16.7486 30.9938C16.9674 30.8987 17.1408 30.7224 17.2322 30.5021L18.3798 27.7348C18.409 27.6644 18.393 27.5833 18.3392 27.5293C18.285 27.4748 18.2033 27.4586 18.1325 27.4883L15.3756 28.6423C15.1585 28.7332 14.9844 28.9038 14.8892 29.1191ZM16.019 30.308C16.2654 30.308 16.4651 30.1074 16.4651 29.8598C16.4651 29.6123 16.2654 29.4116 16.019 29.4116C15.7726 29.4116 15.5729 29.6123 15.5729 29.8598C15.5729 30.1074 15.7726 30.308 16.019 30.308Z" fill="#FBDA16"/>
<path d="M2.67318 22.5098V35.2074H1.60547V22.5098H2.67318ZM10.4857 22.5098L5.03429 28.3266L2.29123 31.0388L2.18707 29.8441L4.39193 27.5417L9.14887 22.5098H10.4857ZM9.60026 35.2074L4.27908 28.6842L4.92144 27.8208L10.8937 35.2074H9.60026Z" fill="white"/>
<path d="M23.7033 27.7249V35.2074H22.6616V25.7714H23.6599L23.7033 27.7249ZM23.5123 29.9051L23.0088 29.6435C23.0435 29.0853 23.1477 28.5621 23.3213 28.0737C23.5007 27.5853 23.7496 27.1551 24.0679 26.783C24.3861 26.4109 24.7681 26.1202 25.2137 25.9109C25.6593 25.7016 26.1657 25.597 26.7328 25.597C27.19 25.597 27.6037 25.6609 27.9741 25.7888C28.3503 25.9109 28.6685 26.1057 28.929 26.3731C29.1952 26.6348 29.4006 26.9778 29.5453 27.4022C29.69 27.8266 29.7623 28.3353 29.7623 28.9284V35.2074H28.7293V28.9633C28.7293 28.3353 28.6309 27.8441 28.4342 27.4894C28.2432 27.1348 27.9741 26.8819 27.6269 26.7307C27.2854 26.5795 26.889 26.504 26.4376 26.504C25.9052 26.504 25.4538 26.6144 25.0835 26.8353C24.7189 27.0505 24.4209 27.3324 24.1894 27.6813C23.9637 28.0243 23.7959 28.3935 23.6859 28.7888C23.576 29.1784 23.5181 29.5505 23.5123 29.9051ZM29.7536 29.0853L29.0592 29.1028C29.0881 28.6435 29.1923 28.2045 29.3717 27.7859C29.5569 27.3673 29.8086 26.9952 30.1269 26.6696C30.4452 26.3383 30.8242 26.0766 31.264 25.8848C31.7096 25.6929 32.2102 25.597 32.7658 25.597C33.2519 25.597 33.6859 25.6638 34.0678 25.7976C34.4498 25.9255 34.771 26.1319 35.0314 26.4167C35.2976 26.6958 35.5001 27.0534 35.639 27.4894C35.7779 27.9255 35.8474 28.4487 35.8474 29.0592V35.2074H34.8057V29.0505C34.8057 28.3819 34.7073 27.8644 34.5106 27.4981C34.3196 27.126 34.0534 26.8673 33.7119 26.722C33.3705 26.5766 32.9712 26.504 32.514 26.504C32.0626 26.5098 31.6662 26.5941 31.3248 26.7569C30.9834 26.9138 30.6969 27.1231 30.4654 27.3848C30.2397 27.6406 30.0661 27.9167 29.9446 28.2133C29.8288 28.5098 29.7652 28.8005 29.7536 29.0853Z" fill="white"/>
<path d="M39.5106 27.5853V38.8353H38.4689V25.7714H39.4411L39.5106 27.5853ZM46.0383 30.4022V30.5853C46.0383 31.2888 45.9573 31.9342 45.7953 32.5214C45.6332 33.1086 45.3989 33.6173 45.0922 34.0476C44.7912 34.472 44.418 34.8005 43.9724 35.033C43.5268 35.2656 43.0204 35.3819 42.4533 35.3819C41.8919 35.3819 41.3913 35.2946 40.9515 35.1202C40.5117 34.9458 40.1327 34.6987 39.8144 34.379C39.5019 34.0534 39.2501 33.6755 39.0592 33.2452C38.874 32.8092 38.7438 32.3324 38.6685 31.815V29.3993C38.7554 28.8295 38.8971 28.3121 39.0939 27.847C39.2906 27.3819 39.5424 26.9807 39.8491 26.6435C40.1616 26.3063 40.532 26.0476 40.9602 25.8673C41.3885 25.6871 41.8775 25.597 42.4272 25.597C43.0001 25.597 43.5094 25.7103 43.955 25.9371C44.4064 26.158 44.7854 26.4807 45.0922 26.9051C45.4047 27.3237 45.639 27.8295 45.7953 28.4226C45.9573 29.0098 46.0383 29.6696 46.0383 30.4022ZM44.9967 30.5853V30.4022C44.9967 29.8499 44.9388 29.3383 44.8231 28.8673C44.7131 28.3964 44.5424 27.9865 44.3109 27.6377C44.0852 27.283 43.7959 27.0069 43.4429 26.8092C43.0956 26.6115 42.6819 26.5127 42.2015 26.5127C41.7038 26.5127 41.2785 26.597 40.9255 26.7656C40.5783 26.9284 40.2889 27.1464 40.0574 27.4196C39.826 27.6871 39.6437 27.9807 39.5106 28.3005C39.3775 28.6202 39.2791 28.9342 39.2154 29.2423V32.0243C39.3254 32.4662 39.5019 32.876 39.7449 33.254C39.988 33.626 40.3121 33.9255 40.7172 34.1522C41.128 34.3731 41.6286 34.4836 42.2189 34.4836C42.6934 34.4836 43.1043 34.3848 43.4515 34.1871C43.7988 33.9894 44.0852 33.7133 44.3109 33.3586C44.5424 33.004 44.7131 32.5912 44.8231 32.1202C44.9388 31.6493 44.9967 31.1377 44.9967 30.5853Z" fill="white"/>
<path d="M54.0592 33.5156V28.6493C54.0592 28.2016 53.9666 27.815 53.7814 27.4894C53.5962 27.1638 53.3242 26.9138 52.9654 26.7394C52.6066 26.565 52.1639 26.4778 51.6373 26.4778C51.1512 26.4778 50.7172 26.565 50.3352 26.7394C49.9591 26.908 49.661 27.1377 49.4411 27.4284C49.227 27.7133 49.1199 28.0301 49.1199 28.379L48.0783 28.3702C48.0783 28.0156 48.1651 27.6726 48.3387 27.3412C48.5123 27.0098 48.7582 26.7133 49.0765 26.4516C49.3948 26.19 49.7739 25.9836 50.2137 25.8324C50.6593 25.6755 51.1483 25.597 51.6807 25.597C52.352 25.597 52.9423 25.7103 53.4515 25.9371C53.9666 26.1638 54.3688 26.504 54.6581 26.9574C54.9475 27.4109 55.0922 27.9807 55.0922 28.6667V33.2278C55.0922 33.5534 55.1153 33.8906 55.1616 34.2394C55.2137 34.5883 55.286 34.876 55.3786 35.1028V35.2074H54.2762C54.2067 34.9981 54.1518 34.7365 54.1113 34.4226C54.0765 34.1028 54.0592 33.8005 54.0592 33.5156ZM54.3022 29.7133L54.3196 30.5156H52.2797C51.7473 30.5156 51.2698 30.565 50.8474 30.6638C50.4307 30.7569 50.0777 30.8964 49.7883 31.0824C49.499 31.2627 49.2762 31.4807 49.1199 31.7365C48.9695 31.9923 48.8942 32.283 48.8942 32.6086C48.8942 32.9458 48.9782 33.254 49.146 33.533C49.3196 33.8121 49.5626 34.0359 49.8751 34.2045C50.1934 34.3673 50.5696 34.4487 51.0036 34.4487C51.5823 34.4487 52.0916 34.3412 52.5314 34.126C52.977 33.9109 53.3445 33.629 53.6338 33.2801C53.9232 32.9313 54.117 32.5505 54.2154 32.1377L54.6668 32.7394C54.5916 33.0301 54.4527 33.3295 54.2501 33.6377C54.0534 33.94 53.7959 34.2249 53.4776 34.4923C53.1593 34.754 52.7831 34.9691 52.3491 35.1377C51.9209 35.3005 51.4347 35.3819 50.8908 35.3819C50.2773 35.3819 49.742 35.2656 49.2849 35.033C48.8335 34.8005 48.4805 34.4836 48.2258 34.0824C47.977 33.6755 47.8526 33.2162 47.8526 32.7045C47.8526 32.2394 47.951 31.8237 48.1477 31.4574C48.3445 31.0853 48.628 30.7714 48.9984 30.5156C49.3746 30.254 49.826 30.0563 50.3526 29.9226C50.885 29.783 51.481 29.7133 52.1408 29.7133H54.3022Z" fill="white"/>
<path d="M63.5036 32.8005C63.5036 32.5446 63.44 32.2917 63.3126 32.0417C63.1853 31.7917 62.9394 31.5621 62.5748 31.3528C62.216 31.1435 61.6865 30.9662 60.9863 30.8208C60.4654 30.7045 59.9996 30.5737 59.5887 30.4284C59.1836 30.283 58.8422 30.1086 58.5644 29.9051C58.2866 29.7016 58.0754 29.4574 57.9307 29.1726C57.786 28.8877 57.7137 28.5505 57.7137 28.1609C57.7137 27.8121 57.7889 27.4836 57.9394 27.1755C58.0956 26.8615 58.3155 26.5883 58.5991 26.3557C58.8885 26.1173 59.2357 25.9313 59.6408 25.7976C60.0516 25.6638 60.5117 25.597 61.021 25.597C61.7444 25.597 62.3636 25.722 62.8786 25.972C63.3994 26.2162 63.7959 26.5505 64.0678 26.9749C64.3456 27.3993 64.4845 27.879 64.4845 28.4138H63.4515C63.4515 28.0883 63.356 27.7801 63.1651 27.4894C62.9799 27.1987 62.705 26.9603 62.3404 26.7743C61.9816 26.5883 61.5418 26.4952 61.021 26.4952C60.4828 26.4952 60.0459 26.5766 59.7102 26.7394C59.3746 26.9022 59.1286 27.1086 58.9724 27.3586C58.8219 27.6086 58.7467 27.8673 58.7467 28.1348C58.7467 28.3441 58.7785 28.5359 58.8422 28.7103C58.9116 28.879 59.0331 29.0359 59.2067 29.1813C59.3861 29.3266 59.6408 29.4633 59.9706 29.5912C60.3005 29.7191 60.7287 29.8441 61.2553 29.9662C62.0135 30.1348 62.6327 30.3412 63.113 30.5853C63.5991 30.8237 63.9579 31.1202 64.1894 31.4749C64.4209 31.8237 64.5366 32.2481 64.5366 32.7481C64.5366 33.1377 64.4556 33.4952 64.2935 33.8208C64.1315 34.1406 63.8971 34.4167 63.5904 34.6493C63.2895 34.8819 62.9249 35.0621 62.4967 35.19C62.0742 35.3179 61.5997 35.3819 61.0731 35.3819C60.2802 35.3819 59.6089 35.251 59.0592 34.9894C58.5152 34.722 58.1014 34.3731 57.8179 33.9429C57.5401 33.5069 57.4012 33.0446 57.4012 32.5563H58.4342C58.4689 33.0446 58.6222 33.4313 58.8942 33.7162C59.1662 33.9952 59.499 34.1929 59.8925 34.3092C60.2918 34.4255 60.6853 34.4836 61.0731 34.4836C61.6055 34.4836 62.0511 34.4051 62.4099 34.2481C62.7687 34.0912 63.0407 33.8848 63.2258 33.629C63.411 33.3731 63.5036 33.097 63.5036 32.8005Z" fill="white"/>
<path d="M72.514 32.8005C72.514 32.5446 72.4504 32.2917 72.3231 32.0417C72.1957 31.7917 71.9498 31.5621 71.5852 31.3528C71.2264 31.1435 70.6969 30.9662 69.9967 30.8208C69.4758 30.7045 69.01 30.5737 68.5991 30.4284C68.194 30.283 67.8526 30.1086 67.5748 29.9051C67.297 29.7016 67.0858 29.4574 66.9411 29.1726C66.7964 28.8877 66.7241 28.5505 66.7241 28.1609C66.7241 27.8121 66.7993 27.4836 66.9498 27.1755C67.106 26.8615 67.3259 26.5883 67.6095 26.3557C67.8989 26.1173 68.2461 25.9313 68.6512 25.7976C69.0621 25.6638 69.5221 25.597 70.0314 25.597C70.7548 25.597 71.374 25.722 71.889 25.972C72.4099 26.2162 72.8063 26.5505 73.0783 26.9749C73.356 27.3993 73.4949 27.879 73.4949 28.4138H72.4619C72.4619 28.0883 72.3665 27.7801 72.1755 27.4894C71.9903 27.1987 71.7154 26.9603 71.3508 26.7743C70.992 26.5883 70.5522 26.4952 70.0314 26.4952C69.4932 26.4952 69.0563 26.5766 68.7206 26.7394C68.385 26.9022 68.139 27.1086 67.9828 27.3586C67.8323 27.6086 67.7571 27.8673 67.7571 28.1348C67.7571 28.3441 67.7889 28.5359 67.8526 28.7103C67.922 28.879 68.0435 29.0359 68.2172 29.1813C68.3966 29.3266 68.6512 29.4633 68.981 29.5912C69.3109 29.7191 69.7391 29.8441 70.2658 29.9662C71.0239 30.1348 71.6431 30.3412 72.1234 30.5853C72.6095 30.8237 72.9683 31.1202 73.1998 31.4749C73.4313 31.8237 73.547 32.2481 73.547 32.7481C73.547 33.1377 73.466 33.4952 73.304 33.8208C73.1419 34.1406 72.9075 34.4167 72.6008 34.6493C72.2999 34.8819 71.9353 35.0621 71.5071 35.19C71.0846 35.3179 70.6101 35.3819 70.0835 35.3819C69.2906 35.3819 68.6194 35.251 68.0696 34.9894C67.5256 34.722 67.1118 34.3731 66.8283 33.9429C66.5505 33.5069 66.4116 33.0446 66.4116 32.5563H67.4446C67.4793 33.0446 67.6327 33.4313 67.9046 33.7162C68.1766 33.9952 68.5094 34.1929 68.9029 34.3092C69.3022 34.4255 69.6957 34.4836 70.0835 34.4836C70.6159 34.4836 71.0615 34.4051 71.4203 34.2481C71.7791 34.0912 72.0511 33.8848 72.2363 33.629C72.4214 33.3731 72.514 33.097 72.514 32.8005Z" fill="white"/>
<path d="M4.77344 4V20H1.39062V4H4.77344Z" fill="white"/>
<path d="M10.8223 13.0625V20H7.49414V8H10.666V10.1172H10.8066C11.0723 9.41927 11.5176 8.86719 12.1426 8.46094C12.7676 8.04948 13.5254 7.84375 14.416 7.84375C15.2493 7.84375 15.9759 8.02604 16.5957 8.39062C17.2155 8.75521 17.6973 9.27604 18.041 9.95312C18.3848 10.625 18.5566 11.4271 18.5566 12.3594V20H15.2285V12.9531C15.2337 12.2188 15.0462 11.6458 14.666 11.2344C14.2858 10.8177 13.7624 10.6094 13.0957 10.6094C12.6478 10.6094 12.252 10.7057 11.9082 10.8984C11.5697 11.0911 11.304 11.3724 11.1113 11.7422C10.9238 12.1068 10.8275 12.5469 10.8223 13.0625Z" fill="white"/>
<path d="M27.5625 8V10.5H20.3359V8H27.5625ZM21.9766 5.125H25.3047V16.3125C25.3047 16.6198 25.3516 16.8594 25.4453 17.0312C25.5391 17.1979 25.6693 17.3151 25.8359 17.3828C26.0078 17.4505 26.2057 17.4844 26.4297 17.4844C26.5859 17.4844 26.7422 17.4714 26.8984 17.4453C27.0547 17.4141 27.1745 17.3906 27.2578 17.375L27.7812 19.8516C27.6146 19.9036 27.3802 19.9635 27.0781 20.0312C26.776 20.1042 26.4089 20.1484 25.9766 20.1641C25.1745 20.1953 24.4714 20.0885 23.8672 19.8438C23.2682 19.599 22.8021 19.2188 22.4688 18.7031C22.1354 18.1875 21.9714 17.5365 21.9766 16.75V5.125Z" fill="white"/>
<path d="M35.0703 20.2344C33.8359 20.2344 32.7734 19.9844 31.8828 19.4844C30.9974 18.9792 30.3151 18.2656 29.8359 17.3438C29.3568 16.4167 29.1172 15.3203 29.1172 14.0547C29.1172 12.8203 29.3568 11.737 29.8359 10.8047C30.3151 9.8724 30.9896 9.14583 31.8594 8.625C32.7344 8.10417 33.7604 7.84375 34.9375 7.84375C35.7292 7.84375 36.4661 7.97135 37.1484 8.22656C37.8359 8.47656 38.4349 8.85417 38.9453 9.35938C39.4609 9.86458 39.862 10.5 40.1484 11.2656C40.4349 12.026 40.5781 12.9167 40.5781 13.9375V14.8516H30.4453V12.7891H37.4453C37.4453 12.3099 37.3411 11.8854 37.1328 11.5156C36.9245 11.1458 36.6354 10.8568 36.2656 10.6484C35.901 10.4349 35.4766 10.3281 34.9922 10.3281C34.487 10.3281 34.0391 10.4453 33.6484 10.6797C33.263 10.9089 32.9609 11.2188 32.7422 11.6094C32.5234 11.9948 32.4115 12.4245 32.4062 12.8984V14.8594C32.4062 15.4531 32.5156 15.9661 32.7344 16.3984C32.9583 16.8307 33.2734 17.1641 33.6797 17.3984C34.0859 17.6328 34.5677 17.75 35.125 17.75C35.4948 17.75 35.8333 17.6979 36.1406 17.5938C36.4479 17.4896 36.7109 17.3333 36.9297 17.125C37.1484 16.9167 37.3151 16.6615 37.4297 16.3594L40.5078 16.5625C40.3516 17.3021 40.0312 17.9479 39.5469 18.5C39.0677 19.0469 38.4479 19.474 37.6875 19.7813C36.9323 20.0833 36.0599 20.2344 35.0703 20.2344Z" fill="white"/>
<path d="M48.1562 24.75C47.0781 24.75 46.1536 24.6016 45.3828 24.3047C44.6172 24.013 44.0078 23.6146 43.5547 23.1094C43.1016 22.6042 42.8073 22.0365 42.6719 21.4062L45.75 20.9922C45.8438 21.2318 45.9922 21.4557 46.1953 21.6641C46.3984 21.8724 46.6667 22.0391 47 22.1641C47.3385 22.2943 47.75 22.3594 48.2344 22.3594C48.9583 22.3594 49.5547 22.1823 50.0234 21.8281C50.4974 21.4792 50.7344 20.8932 50.7344 20.0703V17.875H50.5938C50.4479 18.2083 50.2292 18.5234 49.9375 18.8203C49.6458 19.1172 49.2708 19.3594 48.8125 19.5469C48.3542 19.7344 47.8073 19.8281 47.1719 19.8281C46.2708 19.8281 45.4505 19.6198 44.7109 19.2031C43.9766 18.7812 43.3906 18.138 42.9531 17.2734C42.5208 16.4036 42.3047 15.3047 42.3047 13.9766C42.3047 12.6172 42.526 11.4818 42.9688 10.5703C43.4115 9.65885 44 8.97656 44.7344 8.52344C45.474 8.07031 46.2839 7.84375 47.1641 7.84375C47.8359 7.84375 48.3984 7.95833 48.8516 8.1875C49.3047 8.41146 49.6693 8.69271 49.9453 9.03125C50.2266 9.36458 50.4427 9.69271 50.5938 10.0156H50.7188V8H54.0234V20.1172C54.0234 21.138 53.7734 21.9922 53.2734 22.6797C52.7734 23.3672 52.0807 23.8828 51.1953 24.2266C50.3151 24.5755 49.3021 24.75 48.1562 24.75ZM48.2266 17.3281C48.763 17.3281 49.2161 17.1953 49.5859 16.9297C49.9609 16.6589 50.2474 16.2734 50.4453 15.7734C50.6484 15.2682 50.75 14.6641 50.75 13.9609C50.75 13.2578 50.651 12.6484 50.4531 12.1328C50.2552 11.612 49.9688 11.2083 49.5938 10.9219C49.2188 10.6354 48.763 10.4922 48.2266 10.4922C47.6797 10.4922 47.2188 10.6406 46.8438 10.9375C46.4688 11.2292 46.1849 11.6354 45.9922 12.1562C45.7995 12.6771 45.7031 13.2786 45.7031 13.9609C45.7031 14.6536 45.7995 15.2526 45.9922 15.7578C46.1901 16.2578 46.474 16.6458 46.8438 16.9219C47.2188 17.1927 47.6797 17.3281 48.2266 17.3281Z" fill="white"/>
<path d="M56.6719 20V8H59.8984V10.0938H60.0234C60.2422 9.34896 60.6094 8.78646 61.125 8.40625C61.6406 8.02083 62.2344 7.82812 62.9062 7.82812C63.0729 7.82812 63.2526 7.83854 63.4453 7.85937C63.638 7.88021 63.8073 7.90885 63.9531 7.94531V10.8984C63.7969 10.8516 63.5807 10.8099 63.3047 10.7734C63.0286 10.737 62.776 10.7188 62.5469 10.7188C62.0573 10.7188 61.6198 10.8255 61.2344 11.0391C60.8542 11.2474 60.5521 11.5391 60.3281 11.9141C60.1094 12.2891 60 12.7214 60 13.2109V20H56.6719Z" fill="white"/>
<path d="M70.584 20.2344C69.3496 20.2344 68.2871 19.9844 67.3965 19.4844C66.5111 18.9792 65.8288 18.2656 65.3496 17.3438C64.8704 16.4167 64.6309 15.3203 64.6309 14.0547C64.6309 12.8203 64.8704 11.737 65.3496 10.8047C65.8288 9.8724 66.5033 9.14583 67.373 8.625C68.248 8.10417 69.2741 7.84375 70.4512 7.84375C71.2428 7.84375 71.9798 7.97135 72.6621 8.22656C73.3496 8.47656 73.9486 8.85417 74.459 9.35938C74.9746 9.86458 75.3756 10.5 75.6621 11.2656C75.9486 12.026 76.0918 12.9167 76.0918 13.9375V14.8516H65.959V12.7891H72.959C72.959 12.3099 72.8548 11.8854 72.6465 11.5156C72.4381 11.1458 72.1491 10.8568 71.7793 10.6484C71.4147 10.4349 70.9902 10.3281 70.5059 10.3281C70.0006 10.3281 69.5527 10.4453 69.1621 10.6797C68.7767 10.9089 68.4746 11.2188 68.2559 11.6094C68.0371 11.9948 67.9251 12.4245 67.9199 12.8984V14.8594C67.9199 15.4531 68.0293 15.9661 68.248 16.3984C68.472 16.8307 68.7871 17.1641 69.1934 17.3984C69.5996 17.6328 70.0814 17.75 70.6387 17.75C71.0085 17.75 71.347 17.6979 71.6543 17.5938C71.9616 17.4896 72.2246 17.3333 72.4434 17.125C72.6621 16.9167 72.8288 16.6615 72.9434 16.3594L76.0215 16.5625C75.8652 17.3021 75.5449 17.9479 75.0605 18.5C74.5814 19.0469 73.9616 19.474 73.2012 19.7813C72.446 20.0833 71.5736 20.2344 70.584 20.2344Z" fill="white"/>
<path d="M81.6855 20.2266C80.9199 20.2266 80.2376 20.0938 79.6387 19.8281C79.0397 19.5573 78.5658 19.1589 78.2168 18.6328C77.873 18.1016 77.7012 17.4401 77.7012 16.6484C77.7012 15.9818 77.8236 15.4219 78.0684 14.9688C78.3131 14.5156 78.6465 14.151 79.0684 13.875C79.4902 13.599 79.9694 13.3906 80.5059 13.25C81.0475 13.1094 81.6152 13.0104 82.209 12.9531C82.9069 12.8802 83.4694 12.8125 83.8965 12.75C84.3236 12.6823 84.6335 12.5833 84.8262 12.4531C85.0189 12.3229 85.1152 12.1302 85.1152 11.875V11.8281C85.1152 11.3333 84.959 10.9505 84.6465 10.6797C84.3392 10.4089 83.9017 10.2734 83.334 10.2734C82.735 10.2734 82.2585 10.4062 81.9043 10.6719C81.5501 10.9323 81.3158 11.2604 81.2012 11.6562L78.123 11.4063C78.2793 10.6771 78.5866 10.0469 79.0449 9.51563C79.5033 8.97917 80.0944 8.56771 80.8184 8.28125C81.5475 7.98958 82.3913 7.84375 83.3496 7.84375C84.0163 7.84375 84.6543 7.92188 85.2637 8.07812C85.8783 8.23438 86.4225 8.47656 86.8965 8.80469C87.3756 9.13281 87.7533 9.55469 88.0293 10.0703C88.3053 10.5807 88.4434 11.1927 88.4434 11.9062V20H85.2871V18.3359H85.1934C85.0006 18.7109 84.7428 19.0417 84.4199 19.3281C84.097 19.6094 83.709 19.8307 83.2559 19.9922C82.8027 20.1484 82.2793 20.2266 81.6855 20.2266ZM82.6387 17.9297C83.1283 17.9297 83.5605 17.8333 83.9355 17.6406C84.3105 17.4427 84.6048 17.1771 84.8184 16.8438C85.0319 16.5104 85.1387 16.1328 85.1387 15.7109V14.4375C85.0345 14.5052 84.8913 14.5677 84.709 14.625C84.5319 14.6771 84.3314 14.7266 84.1074 14.7734C83.8835 14.8151 83.6595 14.8542 83.4355 14.8906C83.2116 14.9219 83.0085 14.9505 82.8262 14.9766C82.4355 15.0339 82.0944 15.125 81.8027 15.25C81.5111 15.375 81.2845 15.5443 81.123 15.7578C80.9616 15.9661 80.8809 16.2266 80.8809 16.5391C80.8809 16.9922 81.0449 17.3385 81.373 17.5781C81.7064 17.8125 82.1283 17.9297 82.6387 17.9297Z" fill="white"/>
<path d="M97.4082 8V10.5H90.1816V8H97.4082ZM91.8223 5.125H95.1504V16.3125C95.1504 16.6198 95.1973 16.8594 95.291 17.0312C95.3848 17.1979 95.515 17.3151 95.6816 17.3828C95.8535 17.4505 96.0514 17.4844 96.2754 17.4844C96.4316 17.4844 96.5879 17.4714 96.7441 17.4453C96.9004 17.4141 97.0202 17.3906 97.1035 17.375L97.627 19.8516C97.4603 19.9036 97.2259 19.9635 96.9238 20.0312C96.6217 20.1042 96.2546 20.1484 95.8223 20.1641C95.0202 20.1953 94.3171 20.0885 93.7129 19.8438C93.1139 19.599 92.6478 19.2188 92.3145 18.7031C91.9811 18.1875 91.8171 17.5365 91.8223 16.75V5.125Z" fill="white"/>
</svg>
